inDegrees=yes
name=ik_S46_A01_T01
DataType=double
version=3
OpenSimVersion=4.3-2021-08-27-4bc7ad9
endheader
time	pelvis_tilt	pelvis_list	pelvis_rotation	pelvis_tx	pelvis_ty	pelvis_tz	hip_flexion_r	hip_adduction_r	hip_rotation_r	knee_angle_r	knee_angle_r_beta	ankle_angle_r	subtalar_angle_r	mtp_angle_r	hip_flexion_l	hip_adduction_l	hip_rotation_l	knee_angle_l	knee_angle_l_beta	ankle_angle_l	subtalar_angle_l	mtp_angle_l	lumbar_extension	lumbar_bending	lumbar_rotation	arm_flex_r	arm_add_r	arm_rot_r	elbow_flex_r	pro_sup_r	wrist_flex_r	wrist_dev_r	arm_flex_l	arm_add_l	arm_rot_l	elbow_flex_l	pro_sup_l	wrist_flex_l	wrist_dev_l
15.61999999999976	-0.6503062686598698	-1.453024135968554	33.24158598096713	0	0.9399999999999999	0	16.06942785235474	-8.249804502870004	-17.28164162781286	28.68701730116751	0.5006829044819509	0	0	0	6.104076438158928	4.96000162981156	2.526197040915855	-0.6438491105789633	-0.01123728686563996	0	0	0	0	0	0	40.5571240196684	-40.5571240196684	4.909160796070928	83.719479312967	85.0908394745728	0	0	40.5571240196684	-40.5571240196684	4.909160796070928	83.719479312967	85.09083947455643	0	0
15.63999999999976	-0.8668381932540901	-1.731399699174463	36.83035182276841	0	0.9399999999999999	0	15.68096471234016	-6.814346819877452	-13.73573093387635	27.40438841655125	0.4782968073642145	0	0	0	6.328850476745759	4.773341776542839	4.369154684508822	-1.296743101261851	-0.02263243666954154	0	0	0	0	0	0	40.57180081480885	-40.57180081480885	4.909680148683677	83.72680111096422	85.09032012198234	0	0	40.57180081480885	-40.57180081480885	4.909680148683677	83.72680111096422	85.09032012196609	0	0
15.65999999999976	-0.9748938012816785	-1.981474070339768	40.27378241570307	0	0.9399999999999999	0	15.48141094888218	-6.072065423907886	-11.37077068367143	24.03569564769903	0.419502027059619	0	0	0	6.588493299357317	4.635217033297526	6.361276991200236	-1.31912806156963	-0.02302312792984053	0	0	0	0	0	0	40.58347480466312	-40.58347480466312	4.910100006006775	83.7327202850727	85.08990026467734	0	0	40.58347480466312	-40.58347480466312	4.910100006006775	83.7327202850727	85.08990026466114	0	0
15.67999999999975	-1.01099821785397	-2.197819120589654	43.58414952063173	0	0.9399999999999999	0	14.77938709411063	-5.98971513936864	-9.932495332988664	22.99336758295027	0.4013099704438127	0	0	0	6.74368531031144	4.398496513481512	8.147694725174443	-1.543968275185968	-0.026947329948333	0	0	0	0	0	0	40.59339416389222	-40.59339416389222	4.910446858775285	83.73761015659936	85.08955341192377	0	0	40.59339416389222	-40.59339416389222	4.910446858775285	83.73761015659936	85.08955341190762	0	0
15.69999999999975	-1.045661103128559	-2.42006773017734	46.56528690664047	0	0.9399999999999999	0	15.46309192204721	-4.975636588330533	-3.617707382215468	17.47692908841992	0.3050299557304987	0	0	0	6.908777071442798	4.104851377366506	9.498554821628721	-1.829090046044988	-0.03192364361893972	0	0	0	0	0	0	40.60727168985201	-40.60727168985201	4.910941584689622	83.74458479378548	85.08905868603077	0	0	40.60727168985201	-40.60727168985201	4.910941584689622	83.74458479378548	85.08905868601474	0	0
15.71999999999975	-1.079685684101246	-2.582439841367751	49.35086748252378	0	0.9399999999999999	0	15.55364912726594	-4.676908126013921	-1.027198824187452	16.5661610398876	0.2891340545616462	0	0	0	7.211132420194617	3.815249773275409	10.72085941587213	-1.953313549354325	-0.03409175276004973	0	0	0	0	0	0	40.61684343887634	-40.61684343887634	4.911279468192394	83.7493482420564	85.08872080254254	0	0	40.61684343887634	-40.61684343887634	4.911279468192394	83.7493482420564	85.08872080252647	0	0
15.73999999999975	-1.070906083960346	-2.593149987556478	50.62834831483409	0	0.9399999999999999	0	15.53552195668968	-4.543308780662042	2.522390384903292	15.92204572071569	0.2778921214795623	0	0	0	7.090264427887506	3.787084686047165	11.8256654622948	-2.466581446159358	-0.04304996750408404	0	0	0	0	0	0	40.62470688203867	-40.62470688203867	4.911561915071733	83.75333018796634	85.08843835567541	0	0	40.62470688203867	-40.62470688203867	4.911561915071733	83.75333018796634	85.08843835565939	0	0
15.75999999999975	-1.160234226847163	-2.581461360384428	55.6805221073236	0	0.9399999999999999	0	15.04982642136668	-5.738646678739133	1.3941190941177	15.60586537462227	0.2723737334101369	0	0	0	7.304530602138017	3.993097713841677	15.42047717594711	-2.078824250745991	-0.03628232774582172	0	0	0	0	0	0	40.6387627522632	-40.6387627522632	4.912050212617435	83.76021409456791	85.08795005815067	0	0	40.6387627522632	-40.6387627522632	4.912050212617435	83.76021409456791	85.08795005813469	0	0
